# xmcd
#
# Track frame offsets:
#	150
#	20819
#	32513
#	49251
#	68602
#	85214
#	103415
#	114979
#	132835
#	149780
#	166486
#	188455
#	203854
#	219675
#	238375
#	266479
#
# Disc length: 3559 seconds
#
# Revision: 1
# Processed by: cddbd v1.5.1PL2 Copyright (c) Steve Scherf et al.
# Submitted via: audiograbber 1.83.01
#
DISCID=f20de510
DTITLE=Various Artist - ASK10B
DYEAR=1900
DGENRE=Country
TTITLE0=Willie Nelson and Lee Ann Womack - Mendocino Country Line
TTITLE1=Martina McBride - My Baby Love Me
TTITLE2=Terri Clark - No Fear
TTITLE3=Chely Wright - One Night in Las Vegas
TTITLE4=Sara Evans - Saints and Angels
TTITLE5=Trisha Yearwood - She's In Love With the Boy
TTITLE6=Dixie Chicks - Some Days You Gotta Dance
TTITLE7=Deanna Carter - Strawberry Wine
TTITLE8=Shania Twain - The Heart Is Blind
TTITLE9=Pam Tillis - Thunder and Roses
TTITLE10=Dixie Chicks - Travelin Soldier
TTITLE11=Cyndi Thomson - What I Really Meant To Say
TTITLE12=Martina McBride - When God Fearin' Women Get The Blues
TTITLE13=Kellie Coffey - When You Lie Next To Me
TTITLE14=Sara Evans - Why Should I Care
TTITLE15=Data - Data Track
EXTD=
EXTT0=
EXTT1=
EXTT2=
EXTT3=
EXTT4=
EXTT5=
EXTT6=
EXTT7=
EXTT8=
EXTT9=
EXTT10=
EXTT11=
EXTT12=
EXTT13=
EXTT14=
EXTT15=
PLAYORDER=
